<svg id="Layer_1" data-name="Layer 1" xmlns="http://www.w3.org/2000/svg" viewBox="0 0 3059.04 766.5"><defs><style>.cls-1{fill:#bcbec0;}.cls-2{fill:#00b4b7;}.cls-3{opacity:0.3;}.cls-4,.cls-5{fill:none;stroke-miterlimit:10;}.cls-4{stroke:#bcbec0;stroke-width:3px;}.cls-5{stroke:#00b4b7;stroke-width:20px;}</style></defs><title>Logótipo (Illustrator)</title><path class="cls-1" d="M1509.84,409.8l-67.32,221.76h-20.68L1366.4,434,1311,631.56h-20.68L1223.4,409.8h18l59,203.28,56.76-203.28h18.48l56.76,203.28,59.4-203.28Z" transform="translate(-209.92 -116.75)"/><path class="cls-1" d="M1701.24,498.24v43.12c0,59.84-23.76,92.84-81.4,92.84-58.08,0-82.28-33-82.28-92.84V498.24c0-59.84,24.2-92.84,82.28-92.84C1677.48,405.4,1701.24,438.4,1701.24,498.24Zm-146.52,0v43.12c0,48.84,16.72,78.32,65.12,78.32,47.52,0,64.68-29.48,64.68-78.32V498.24c0-48.84-17.16-78.76-64.68-78.76C1571.44,419.48,1554.72,449.4,1554.72,498.24Z" transform="translate(-209.92 -116.75)"/><path class="cls-1" d="M1845.56,420.8c-32.12,0-63.36,19.36-75.68,32.56V629.8h-16.72v-220h13.64l3.08,29.48c20.68-20.24,47.52-33.88,75.68-33.88Z" transform="translate(-209.92 -116.75)"/><path class="cls-1" d="M1879,629.8v-308h16.72v308Z" transform="translate(-209.92 -116.75)"/><path class="cls-1" d="M2103.4,321.8v308h-13.64l-3.08-28.6c-18.48,16.72-41.8,33-70.4,33-51.48,0-69.08-32.56-69.08-92.4v-44c0-59.84,24.2-92.4,82.72-92.4a295.9,295.9,0,0,1,56.76,5.28V321.8Zm-16.72,264.88V425.2c-22.88-4.4-39.16-5.72-54.56-5.72-50.16,0-67.76,29-67.76,78.32v44c0,46.2,11,77.44,55.88,77.44C2042.24,619.24,2067.76,605.6,2086.68,586.68Z" transform="translate(-209.92 -116.75)"/><path class="cls-2" d="M2195.79,534.32v5.28c0,37.4,8.8,63.8,57.2,63.8a283.4,283.4,0,0,0,63.36-7.92v31.24a293.27,293.27,0,0,1-64.68,7.48c-77.44,0-97.24-39.6-97.24-94.6V500c0-55,20.68-94.6,86.24-94.6,65.12,0,83.6,37.4,83.6,92.4v36.52Zm0-40.92v11.88h89.32V493.4c0-35.2-11-57.2-44.44-57.2C2206.79,436.2,2195.79,458.2,2195.79,493.4Z" transform="translate(-209.92 -116.75)"/><path class="cls-2" d="M2466.84,631.12h-51.48l-72.6-221.32h44l54.12,180.4,51.92-180.4h44Z" transform="translate(-209.92 -116.75)"/><path class="cls-2" d="M2596.64,534.32v5.28c0,37.4,8.8,63.8,57.2,63.8a283.4,283.4,0,0,0,63.36-7.92v31.24a293.27,293.27,0,0,1-64.68,7.48c-77.44,0-97.24-39.6-97.24-94.6V500c0-55,20.68-94.6,86.24-94.6,65.12,0,83.6,37.4,83.6,92.4v36.52Zm0-40.92v11.88H2686V493.4c0-35.2-11-57.2-44.44-57.2C2607.64,436.2,2596.64,458.2,2596.64,493.4Z" transform="translate(-209.92 -116.75)"/><path class="cls-2" d="M2935.44,468.32V629.8h-40.92V473.6c0-26-11-35.2-34.32-35.2-21.12,0-42.24,12.76-52.8,22V629.8h-40.48v-220h29l11.44,25.52c18.92-18,42.24-29.92,69.52-29.92C2912.56,405.4,2935.44,422.12,2935.44,468.32Z" transform="translate(-209.92 -116.75)"/><path class="cls-2" d="M3031.36,440.6V568.2c0,23.76,7,33.88,29,33.88a128.61,128.61,0,0,0,26.84-3.08v30.8c-14.08,2.64-27.72,4.4-38.28,4.4-46.64,0-58.08-23.32-58.08-66V440.6h-28.16v-22l28.16-8.8,11.44-61.6h29v61.6h55.88v30.8Z" transform="translate(-209.92 -116.75)"/><path class="cls-2" d="M3262.36,412.88v31.24c-25.08-5.72-50.16-7.92-62.92-7.92-32.12,0-41.8,11.44-41.8,27.72v4.4c0,50.16,111.32,10.56,111.32,92v6.6c0,46.64-27.72,67.32-82.28,67.32-23.32,0-53.24-2.64-73.48-7.48V595.48c24.2,5.72,51,7.92,69.52,7.92,36.52,0,44.44-15.84,44.44-33V566c0-47.08-111.32-7.48-111.32-94.6v-7.48c0-39.16,29.92-58.52,80.08-58.52C3220.12,405.4,3241.24,407.6,3262.36,412.88Z" transform="translate(-209.92 -116.75)"/><g class="cls-3"><line class="cls-4" x1="814.17" y1="388.12" x2="239.67" y2="56.9"/><line class="cls-4" x1="48.17" y1="388.12" x2="814.17" y2="388.12"/><line class="cls-4" x1="622.67" y1="56.9" x2="622.67" y2="719.34"/><line class="cls-4" x1="239.67" y1="719.34" x2="814.17" y2="388.12"/><line class="cls-4" x1="622.67" y1="719.34" x2="239.67" y2="56.9"/><line class="cls-4" x1="622.67" y1="719.34" x2="48.17" y2="388.12"/><line class="cls-4" x1="239.67" y1="719.34" x2="622.67" y2="56.9"/><line class="cls-4" x1="239.67" y1="719.34" x2="239.67" y2="56.9"/><line class="cls-4" x1="48.17" y1="388.12" x2="622.67" y2="56.9"/></g><polygon class="cls-5" points="628.19 46.87 234.15 46.87 37.12 388.12 234.15 729.38 628.19 729.38 825.21 388.12 628.19 46.87"/><circle class="cls-2" cx="227.92" cy="37.12" r="37.12"/><circle class="cls-2" cx="633.26" cy="37.12" r="37.12"/><circle class="cls-2" cx="825.21" cy="388.12" r="37.12"/><circle class="cls-2" cx="627.64" cy="729.38" r="37.12"/><circle class="cls-2" cx="233.87" cy="729.38" r="37.12"/><circle class="cls-2" cx="37.12" cy="388.12" r="37.12"/><path class="cls-2" d="M663.81,427.5,596.49,649.26H575.81L520.37,451.7,464.93,649.26H444.25L377.37,427.5h18l59,203.28L511.13,427.5h18.48l56.76,203.28,59.4-203.28Z" transform="translate(-209.92 -116.75)"/><path class="cls-2" d="M745.81,539v6c0,42.5,10,72.5,65,72.5a322.08,322.08,0,0,0,72-9V644a333.28,333.28,0,0,1-73.5,8.5c-88,0-110.5-45-110.5-107.5V500c0-62.5,23.5-107.5,98-107.5,74,0,95,42.5,95,105V539Zm0-46.5V506h101.5V492.5c0-40-12.5-65-50.5-65C758.31,427.5,745.81,452.5,745.81,492.5Z" transform="translate(-209.92 -116.75)"/></svg>